<svg width="18" height="18" viewBox="0 0 18 18" fill="none" xmlns="http://www.w3.org/2000/svg">
<path d="M7.17073 4.29878C7.17073 3.4294 7.17073 2.99472 7.31272 2.65182C7.50211 2.19464 7.86539 1.8314 8.32252 1.64203C8.66547 1.5 9.10012 1.5 9.96951 1.5H12.7683C14.5274 1.5 15.407 1.5 15.9535 2.0465C16.5 2.59299 16.5 3.47256 16.5 5.23171V8.03049C16.5 8.89988 16.5 9.33453 16.358 9.67748C16.1686 10.1346 15.8054 10.4979 15.3482 10.6873C15.0053 10.8293 14.5706 10.8293 13.7012 10.8293" stroke="#B3B3B3" stroke-width="2"/>
<path d="M3.36593 7.17073H8.96349C9.99397 7.17073 10.8293 8.0061 10.8293 9.03658V14.6341C10.8293 15.6646 9.99397 16.5 8.96349 16.5H3.36593C2.33545 16.5 1.50008 15.6646 1.50008 14.6341V9.03658C1.50008 8.0061 2.33545 7.17073 3.36593 7.17073Z" stroke="#B3B3B3" stroke-width="2"/>
</svg>
