<svg width="21" height="23" viewBox="0 0 21 23" fill="none" xmlns="http://www.w3.org/2000/svg">
<path d="M9.45 2.45V1.05C9.45 0.771523 9.56062 0.504451 9.75754 0.307538C9.95445 0.110625 10.2215 0 10.5 0C10.7785 0 11.0455 0.110625 11.2425 0.307538C11.4394 0.504451 11.55 0.771523 11.55 1.05V2.45C11.55 2.72848 11.4394 2.99555 11.2425 3.19246C11.0455 3.38938 10.7785 3.5 10.5 3.5C10.2215 3.5 9.95445 3.38938 9.75754 3.19246C9.56062 2.99555 9.45 2.72848 9.45 2.45ZM16.45 10.5C16.45 11.6768 16.101 12.8272 15.4472 13.8056C14.7934 14.7841 13.8642 15.5467 12.777 15.9971C11.6897 16.4474 10.4934 16.5653 9.33921 16.3357C8.18503 16.1061 7.12484 15.5394 6.29271 14.7073C5.46059 13.8752 4.89391 12.815 4.66433 11.6608C4.43475 10.5066 4.55258 9.31025 5.00292 8.22303C5.45326 7.13581 6.21588 6.20655 7.19436 5.55276C8.17283 4.89896 9.3232 4.55 10.5 4.55C12.0775 4.55162 13.59 5.17902 14.7055 6.29451C15.821 7.41 16.4484 8.92246 16.45 10.5ZM14.35 10.5C14.35 9.73854 14.1242 8.99418 13.7012 8.36105C13.2781 7.72793 12.6768 7.23446 11.9733 6.94306C11.2698 6.65167 10.4957 6.57542 9.7489 6.72398C9.00208 6.87253 8.31607 7.23921 7.77764 7.77764C7.23921 8.31607 6.87253 9.00208 6.72398 9.7489C6.57542 10.4957 6.65167 11.2698 6.94306 11.9733C7.23446 12.6768 7.72793 13.2781 8.36105 13.7012C8.99418 14.1242 9.73854 14.35 10.5 14.35C11.5207 14.3488 12.4993 13.9428 13.2211 13.2211C13.9428 12.4993 14.3488 11.5207 14.35 10.5ZM3.80712 5.29287C3.9048 5.39055 4.02075 5.46802 4.14836 5.52088C4.27597 5.57374 4.41275 5.60095 4.55087 5.60095C4.689 5.60095 4.82578 5.57374 4.95339 5.52088C5.081 5.46802 5.19695 5.39055 5.29463 5.29287C5.3923 5.1952 5.46977 5.07925 5.52263 4.95164C5.57549 4.82403 5.6027 4.68725 5.6027 4.54913C5.6027 4.411 5.57549 4.27422 5.52263 4.14661C5.46977 4.019 5.3923 3.90305 5.29463 3.80538L4.24462 2.75538C4.04737 2.55812 3.77984 2.4473 3.50087 2.4473C3.22191 2.4473 2.95438 2.55812 2.75712 2.75538C2.55987 2.95263 2.44905 3.22016 2.44905 3.49913C2.44905 3.77809 2.55987 4.04562 2.75712 4.24288L3.80712 5.29287ZM3.80712 15.7054L2.75712 16.7554C2.65945 16.853 2.58198 16.969 2.52912 17.0966C2.47626 17.2242 2.44905 17.361 2.44905 17.4991C2.44905 17.6373 2.47626 17.774 2.52912 17.9016C2.58198 18.0293 2.65945 18.1452 2.75712 18.2429C2.95438 18.4401 3.22191 18.5509 3.50087 18.5509C3.639 18.5509 3.77578 18.5237 3.90339 18.4709C4.031 18.418 4.14695 18.3405 4.24462 18.2429L5.29463 17.1929C5.49188 16.9956 5.6027 16.7281 5.6027 16.4491C5.6027 16.1702 5.49188 15.9026 5.29463 15.7054C5.09737 15.5081 4.82983 15.3973 4.55087 15.3973C4.27191 15.3973 4.00438 15.5081 3.80712 15.7054ZM16.45 5.6C16.5879 5.60011 16.7245 5.57304 16.852 5.52034C16.9795 5.46765 17.0953 5.39035 17.1929 5.29287L18.2429 4.24288C18.3405 4.1452 18.418 4.02925 18.4709 3.90164C18.5237 3.77403 18.5509 3.63725 18.5509 3.49913C18.5509 3.361 18.5237 3.22422 18.4709 3.09661C18.418 2.969 18.3405 2.85305 18.2429 2.75538C18.1452 2.6577 18.0293 2.58023 17.9016 2.52737C17.774 2.47451 17.6373 2.4473 17.4991 2.4473C17.361 2.4473 17.2242 2.47451 17.0966 2.52737C16.969 2.58023 16.853 2.6577 16.7554 2.75538L15.7054 3.80538C15.5577 3.95223 15.4569 4.13971 15.4161 4.34397C15.3752 4.54822 15.396 4.76001 15.4758 4.95241C15.5557 5.14481 15.6909 5.30912 15.8644 5.42443C16.0378 5.53975 16.2417 5.60086 16.45 5.6ZM17.1929 15.7071C16.9956 15.5099 16.7281 15.3991 16.4491 15.3991C16.1702 15.3991 15.9026 15.5099 15.7054 15.7071C15.5081 15.9044 15.3973 16.1719 15.3973 16.4509C15.3973 16.7298 15.5081 16.9974 15.7054 17.1946L16.7554 18.2446C16.9526 18.4419 17.2202 18.5527 17.4991 18.5527C17.7781 18.5527 18.0456 18.4419 18.2429 18.2446C18.4401 18.0474 18.5509 17.7798 18.5509 17.5009C18.5509 17.2219 18.4401 16.9544 18.2429 16.7571L17.1929 15.7071ZM3.5 10.5C3.5 10.2215 3.38938 9.95445 3.19246 9.75754C2.99555 9.56062 2.72848 9.45 2.45 9.45H1.05C0.771523 9.45 0.504451 9.56062 0.307538 9.75754C0.110625 9.95445 0 10.2215 0 10.5C0 10.7785 0.110625 11.0455 0.307538 11.2425C0.504451 11.4394 0.771523 11.55 1.05 11.55H2.45C2.72848 11.55 2.99555 11.4394 3.19246 11.2425C3.38938 11.0455 3.5 10.7785 3.5 10.5ZM10.5 17.5C10.2215 17.5 9.95445 17.6106 9.75754 17.8075C9.56062 18.0045 9.45 18.2715 9.45 18.55V19.95C9.45 20.2285 9.56062 20.4955 9.75754 20.6925C9.95445 20.8894 10.2215 21 10.5 21C10.7785 21 11.0455 20.8894 11.2425 20.6925C11.4394 20.4955 11.55 20.2285 11.55 19.95V18.55C11.55 18.2715 11.4394 18.0045 11.2425 17.8075C11.0455 17.6106 10.7785 17.5 10.5 17.5ZM19.95 9.45H18.55C18.2715 9.45 18.0045 9.56062 17.8075 9.75754C17.6106 9.95445 17.5 10.2215 17.5 10.5C17.5 10.7785 17.6106 11.0455 17.8075 11.2425C18.0045 11.4394 18.2715 11.55 18.55 11.55H19.95C20.2285 11.55 20.4955 11.4394 20.6925 11.2425C20.8894 11.0455 21 10.7785 21 10.5C21 10.2215 20.8894 9.95445 20.6925 9.75754C20.4955 9.56062 20.2285 9.45 19.95 9.45Z" fill="white"/>
</svg>
