
<svg width="18" height="16" viewBox="0 0 18 16" fill="none" xmlns="http://www.w3.org/2000/svg">
<path d="M6.25441 0.98574L6.10702 0.833334H5.895H1.28571H0.785714V1.33333V14.6667V15.1667H1.28571H16.7143H17.2143V14.6667V4V3.5H16.7143H8.68141L8.45644 3.26269L8.45646 3.26267L8.45299 3.25907L6.25441 0.98574ZM5.895 0.500001L5.89541 0.5C5.9965 0.499917 6.09707 0.520558 6.19148 0.561239C6.28594 0.601941 6.37292 0.66215 6.4469 0.739331L6.44794 0.740402L8.64008 3.01373L8.78755 3.16667H9H16.7143C16.9167 3.16667 17.1146 3.24988 17.2635 3.40426C17.413 3.55926 17.5 3.77324 17.5 4V14.6667C17.5 14.8934 17.413 15.1074 17.2635 15.2624C17.1146 15.4168 16.9167 15.5 16.7143 15.5H1.28571C1.08332 15.5 0.885367 15.4168 0.736499 15.2624C0.587034 15.1074 0.5 14.8934 0.5 14.6667V1.33333C0.5 1.10657 0.587034 0.892593 0.736499 0.737592C0.885368 0.58321 1.08332 0.5 1.28571 0.5L5.895 0.500001Z" fill="#174DDC" stroke="#174DDC"/>
<path d="M6 13H12H6ZM9 6V11.25V6ZM9 11.25L10.75 9.71875L9 11.25ZM9 11.25L7.25 9.71875L9 11.25Z" fill="#174DDC"/>
<path d="M6 13H12M9 6V11.25M9 11.25L10.75 9.71875M9 11.25L7.25 9.71875" stroke="#174DDC" stroke-linecap="round" stroke-linejoin="round"/>
</svg>
