<svg width="20" height="20" viewBox="0 0 20 20" fill="none" xmlns="http://www.w3.org/2000/svg">
<path d="M19.8824 9.79238C19.5968 9.06928 18.8916 8.67548 18.1283 8.81328L16.56 9.09573C16.2996 9.14258 16.1268 9.39178 16.1732 9.65218C16.22 9.91258 16.4688 10.0856 16.7288 10.0392L18.2971 9.75673C18.6703 9.68943 18.9007 9.91298 18.9919 10.1441C19.0835 10.3757 19.0676 10.6966 18.7495 10.9029L16.4476 12.3968C16.2336 12.5354 15.9732 12.545 15.7504 12.4237C15.5272 12.3023 15.3936 12.0775 15.3936 11.8231V6.98243C15.3936 6.71763 15.1796 6.50293 14.9152 6.50293C14.6508 6.50293 14.4368 6.71763 14.4368 6.98243V11.8239C14.4368 12.4353 14.7568 12.9745 15.2932 13.2666C15.5424 13.402 15.8108 13.4697 16.078 13.4697C16.3864 13.4697 16.6936 13.3803 16.968 13.2021L19.27 11.7081C19.922 11.2851 20.168 10.5155 19.8824 9.79238ZM11.7852 8.81368L10.2168 9.09613C9.9568 9.14298 9.784 9.39218 9.8304 9.65258C9.8772 9.91298 10.126 10.086 10.386 10.0396L11.9544 9.75713C12.328 9.68983 12.558 9.91338 12.6496 10.1445C12.7408 10.3761 12.7252 10.697 12.4068 10.9033L10.1048 12.3972C9.8912 12.5358 9.6308 12.5454 9.4076 12.4241C9.1844 12.3027 9.0512 12.0779 9.0512 11.8235V8.14583C9.0512 7.53408 8.7312 6.99488 8.1948 6.70283C7.6584 6.41118 7.0324 6.43523 6.52 6.76733L0.72964 10.5247C0.0780445 10.9474 -0.167954 11.717 0.117644 12.4401C0.402843 13.1628 1.10764 13.5562 1.87163 13.4188L6.9272 12.5086C7.1872 12.4617 7.3604 12.2125 7.3136 11.9521C7.2668 11.6917 7.018 11.5183 6.758 11.5651L1.70244 12.4753C1.32884 12.5426 1.09884 12.3191 1.00764 12.0879C0.91604 11.8564 0.93164 11.5355 1.25004 11.3288L7.0392 7.57218C7.2524 7.43393 7.5132 7.42393 7.7364 7.54533C7.9596 7.66713 8.0928 7.89188 8.0928 8.14623V11.8239C8.0928 12.4353 8.4128 12.9745 8.9492 13.2666C9.1984 13.402 9.4672 13.4697 9.7344 13.4697C10.0428 13.4697 10.3496 13.3803 10.624 13.2021L12.9264 11.7081C13.5776 11.2855 13.8236 10.5159 13.5384 9.79278C13.254 9.06928 12.5484 8.67628 11.7852 8.81368Z" fill="#009C32"/>
</svg>
