<svg width="20" height="20" viewBox="0 0 20 20" fill="none" xmlns="http://www.w3.org/2000/svg">
<path fill-rule="evenodd" clip-rule="evenodd" d="M0 10.0054C0 4.48513 4.48676 0 10.0068 0C15.5143 0 20 4.48513 20 10.0054C20 15.5143 15.5143 20 10.0068 20C4.48676 20 0 15.5143 0 10.0054ZM0.499946 10.0054C0.499946 15.2387 4.76454 19.4998 10.0068 19.4998C15.2384 19.4998 19.5001 15.2376 19.5001 10.0054C19.5001 4.76345 15.2401 0.500217 10.0068 0.500217C4.76291 0.500217 0.499946 4.76128 0.499946 10.0054ZM12.8442 3.71853C11.2617 3.0127 8.31272 2.94271 5.89708 4.01855C6.09022 3.88021 6.29178 3.75543 6.50092 3.64366C6.62842 3.5753 6.7589 3.51183 6.89155 3.45378C7.65218 3.0995 8.87885 2.75608 10.4077 2.75608C10.4799 2.75608 10.552 2.75662 10.6245 2.75825C11.9317 2.78158 13.4814 3.23296 14.4287 4.16992C14.5898 4.36632 14.6832 4.56217 14.7176 4.71354C15.4693 5.09549 15.9082 5.45356 16.1504 5.87023C16.2554 6.08941 16.2899 6.31999 16.2427 6.58637C16.4893 6.72472 16.703 6.91461 16.8693 7.14356C16.9716 7.31662 17.0527 7.51139 17.0766 7.68772C17.1105 7.91721 17.1332 8.18305 16.8905 8.49609C17.1449 8.62359 17.3522 8.98058 17.3771 9.13249C17.5043 9.69727 17.1332 10.2528 16.6599 10.682C16.3056 10.9912 15.6793 11.3384 15.0138 11.6157C14.6357 11.773 14.2448 11.9081 13.8843 12.0003C12.4951 12.3519 11.2139 12.5591 10.0925 12.7409C9.62918 12.8163 9.19298 12.8868 8.78771 12.9612C9.15717 13.0496 9.60395 13.1554 10.1926 13.2265C10.5979 13.2758 11.0704 13.3084 11.6317 13.3084C14.5782 13.3084 17.1799 11.9189 17.1799 11.9189C17.1799 11.9189 17.1227 12.0936 17.0638 12.2559C15.1915 13.3887 12.2211 13.8623 10.9484 13.8043C9.66499 13.7457 8.57883 13.5498 7.51492 13.2254C7.18994 13.3171 6.86985 13.425 6.55599 13.5498C8.17546 14.2898 9.39996 14.4526 10.7761 14.5557C12.1853 14.6609 14.522 14.324 16.4855 13.6089C16.4415 13.6534 16.4079 13.7082 16.3751 13.7619C16.339 13.8205 16.3034 13.8786 16.2554 13.9209C15.2493 14.4526 13.1234 14.9848 12.0478 15.0309C10.9833 15.0776 9.68886 15.0309 8.5555 14.822C7.58436 14.6267 6.78548 14.324 5.95378 13.9556C5.80485 14.0696 5.73541 14.2101 5.69933 14.3723C8.94992 16.0721 11.977 16.1057 15.4354 15.0309L15.1221 15.332C11.3184 16.8821 8.34717 16.2798 6.04546 15.1693C5.96598 15.1345 5.87321 15.0993 5.80485 15.0537C6.02485 15.4243 7.78049 16.7079 9.74609 16.8701C10.4568 16.9309 11.25 16.8956 11.9851 16.792C12.6503 16.6981 13.2682 16.5479 13.7348 16.3618L13.157 16.6618C12.6826 16.8934 11.4228 17.4268 9.66444 17.3101C7.31825 17.1474 5.99989 16.1062 5.40989 15.5637C5.13265 15.3076 5.00651 15.0195 4.92486 14.6609C4.39263 14.3831 4.05762 14.0929 3.78147 13.654C3.61925 13.4115 3.65262 13.1228 3.68707 12.8781L3.75922 12.6725C3.50315 12.4854 3.23758 12.289 3.13368 12.0936C2.90093 11.677 3.04199 11.3178 3.20313 11.04C3.15186 10.9809 3.10221 10.9218 3.05718 10.8626C2.9796 10.7601 2.91558 10.6576 2.88059 10.555C2.81033 10.37 2.79948 10.1828 2.82037 9.97559C2.86757 9.62945 3.05257 9.30664 3.29536 9.02778C3.80317 8.4375 4.61426 7.97526 5.98823 7.52441C7.03586 7.17448 7.59847 7.05349 8.27067 6.90918C8.46734 6.86686 8.67323 6.82292 8.90327 6.77029C10.0939 6.49468 11.5161 6.403 12.7059 5.98633C9.38775 5.40853 5.9432 5.93967 3.13368 7.86947L3.31814 7.32639C5.83822 5.68468 8.62495 4.71354 13.3415 5.53494C13.5959 5.38411 13.7459 5.23329 13.8165 4.93327C12.6364 4.50575 11.3539 4.35547 9.70106 4.37771C8.22049 4.42491 5.54877 4.97776 4.11757 5.8252L4.55485 5.28049C5.54877 4.68859 8.14996 3.91493 10.1055 3.88021C11.48 3.84603 12.1853 3.92632 13.8276 4.36632C13.6759 4.09017 13.3415 3.9502 12.8442 3.71853ZM15.3643 6.12522C15.3193 5.80132 14.9493 5.48882 14.6248 5.28049C14.5947 5.38574 14.512 5.5051 14.4257 5.61089C14.3791 5.6684 14.3313 5.72157 14.2904 5.7666C14.6487 5.85992 15.0187 5.99664 15.3643 6.12522ZM13.782 6.2283C13.5493 6.41385 13.2848 6.57498 12.8904 6.72689C13.5392 6.84028 14.0248 7.02583 14.5782 7.17719C14.5839 7.1799 14.5904 7.18099 14.5966 7.18045C14.7171 7.18045 15.1131 6.81424 15.1815 6.71387C14.9672 6.62001 14.7266 6.52561 14.4686 6.43717C14.2502 6.36231 14.0196 6.29123 13.782 6.2283ZM16.2554 7.9286C16.4049 7.63943 16.3127 7.45443 16.0015 7.18804C15.8738 7.33995 15.7349 7.46582 15.5849 7.58138C15.6939 7.63346 15.7986 7.67849 15.8998 7.72624C16.0232 7.78429 16.1415 7.84614 16.2554 7.9286ZM11.0539 7.31662C9.52772 7.50163 7.83881 7.82389 6.39431 8.2525L6.31727 8.27583C5.60032 8.49392 2.88927 9.31641 3.71257 10.4503L3.72233 10.4395C3.801 10.3505 4.37256 9.70106 6.17377 9.17752C7.44086 8.80534 8.73996 8.56879 10.0594 8.32845C11.2446 8.11252 12.4463 7.89334 13.6553 7.57053C12.9357 7.37901 12.4452 7.26454 11.8316 7.264C11.597 7.264 11.3444 7.28082 11.0539 7.31662ZM12.7067 8.71582C11.8861 8.92361 9.89665 9.21278 7.75879 9.67502C7.08767 9.8253 5.24875 10.2528 4.34706 11.0167C4.49165 11.1361 4.60666 11.2023 4.72982 11.2668C4.82286 11.3156 4.92079 11.3639 5.03988 11.4334C5.40989 11.1898 5.91933 10.9587 6.67209 10.7612C7.85943 10.446 8.78228 10.2941 9.82775 10.1221L10.14 10.0705C11.3078 9.89366 13.5154 9.43142 14.7287 8.99197C15.0079 8.89757 15.2694 8.78038 15.4921 8.64421C15.5933 8.58236 15.6863 8.51671 15.7693 8.44781C15.6882 8.35666 14.9021 7.97526 14.8787 8.01053C14.3948 8.2411 13.7009 8.47168 12.7067 8.71582ZM13.5276 10.2886C11.0539 10.9587 9.26053 11.0498 7.22548 11.55C6.9911 11.6092 6.7532 11.6775 6.52073 11.7556C6.35145 11.8121 6.1849 11.8739 6.02485 11.9417C6.40489 12.1387 6.82156 12.3128 7.23714 12.475C8.06939 12.232 8.46436 12.1278 9.66444 11.9314L10.3309 11.8115C10.9665 11.6954 11.8541 11.531 12.5548 11.3889C14.3948 10.9939 17.0882 10.1378 16.3715 9.02778C16.3357 9.05816 16.2999 9.08583 16.2641 9.1135C16.2188 9.14931 16.1738 9.18511 16.1287 9.22472C15.5849 9.63867 14.7176 9.97559 13.5276 10.2886ZM4.13927 12.1387C4.21929 12.0584 4.32427 11.9884 4.40538 11.9189C4.21929 11.8229 4.0918 11.7415 3.94558 11.6482L3.86149 11.5945C3.76872 11.805 3.95535 12.0334 4.13927 12.1387ZM6.28879 12.8098C5.95378 12.6595 5.59597 12.5103 5.24875 12.3481C5.08708 12.4523 4.93761 12.5553 4.82151 12.6595C5.09874 12.8217 5.3654 12.9709 5.64318 13.1234C5.84744 12.9975 6.06364 12.8923 6.28879 12.8098ZM4.93761 13.8862C4.97097 13.7695 5.02984 13.6778 5.11095 13.5623C5.01953 13.5135 4.92839 13.4652 4.83724 13.4147C4.73145 13.3556 4.62619 13.2943 4.52094 13.2254C4.50819 13.4462 4.64817 13.6426 4.93761 13.8862Z" fill="#476BF0"/>
</svg>
