<svg width="20" height="20" viewBox="0 0 20 20" fill="none" xmlns="http://www.w3.org/2000/svg">
<path fill-rule="evenodd" clip-rule="evenodd" d="M9.95044 10.9068C12.9689 10.9068 15.4039 8.4591 15.4039 5.45338C15.4039 2.435 12.9562 0 9.95044 0C6.93208 0 4.49707 2.435 4.49707 5.45338C4.49707 8.4591 6.93208 10.9068 9.95044 10.9068ZM9.9876 15.2441C13.006 15.2441 15.441 14.5846 15.441 13.773C15.441 12.9613 12.9933 12.3018 9.9876 12.3018C6.96923 12.3018 4.53423 12.9613 4.53423 13.773C4.53423 14.5846 6.98192 15.2441 9.9876 15.2441ZM15.441 17.3622C15.441 17.8442 13.006 18.2246 9.9876 18.2246C6.98192 18.2246 4.53423 17.8442 4.53423 17.3622C4.53423 16.8803 6.96923 16.4999 9.9876 16.4999C12.9933 16.4871 15.441 16.8803 15.441 17.3622ZM9.9876 20C13.006 20 15.441 19.8986 15.441 19.7591C15.441 19.6195 12.9933 19.5054 9.9876 19.5181C6.96923 19.5181 4.53423 19.6195 4.53423 19.7591C4.53423 19.8859 6.98192 20 9.9876 20Z" fill="#F56E28"/>
</svg>
