<svg width="20" height="20" viewBox="0 0 20 20" fill="none" xmlns="http://www.w3.org/2000/svg">
<path d="M15.8972 20H4.10465C1.84155 20 0 18.1586 0 15.8957V4.10427C0 1.84137 1.84155 0 4.10465 0H15.8972C18.1603 0 20 1.84137 20 4.10427V15.8957C20.0019 18.1586 18.1603 20 15.8972 20ZM4.10465 0.290256C2.00055 0.290256 0.290284 2.00037 0.290284 4.10427V15.8957C0.290284 17.9977 2.00055 19.7079 4.10465 19.7079H15.8972C17.9994 19.7079 19.7097 17.9959 19.7097 15.8957V4.10427C19.7097 2.00037 17.9994 0.290256 15.8972 0.290256H4.10465Z" fill="#0039A6"/>
<path d="M8.96947 2.91146C9.27455 2.73398 9.60737 2.64524 9.93829 2.63416C9.24492 2.65449 8.57935 3.02239 8.2077 3.66761L2.22452 14.0262C1.65319 15.0172 1.9934 16.2818 2.98258 16.853C3.97177 17.4243 5.23829 17.086 5.80777 16.0969L10.0011 8.8349L8.21325 5.73824C7.64193 4.74729 7.9803 3.48274 8.96947 2.91146Z" fill="#00A1DE"/>
<path d="M17.777 14.0269L11.7957 3.67018C11.4222 3.02496 10.7566 2.65706 10.0632 2.63672C10.3924 2.64596 10.7252 2.73655 11.0303 2.91403C12.0194 3.4853 12.3596 4.74986 11.7864 5.73895L9.99854 8.83561L14.1919 16.0976C14.7632 17.0867 16.0279 17.425 17.0171 16.8538C18.01 16.2825 18.3484 15.0179 17.777 14.0269Z" fill="#0039A6"/>
<path d="M11.033 2.91146C10.7279 2.73398 10.3951 2.64524 10.066 2.63416H10.0531H9.95141H9.94032C9.60933 2.6434 9.27834 2.73398 8.97144 2.91146C7.98226 3.48274 7.6439 4.74729 8.21521 5.73638L10.0032 8.83308L11.7911 5.73638C12.3606 4.74729 12.0222 3.48274 11.033 2.91146Z" fill="#002C77"/>
<path d="M12.1307 15.0749C12.1307 16.2526 11.1785 17.2029 10.0025 17.2029C8.82662 17.2029 7.87256 16.2507 7.87256 15.0749C7.87256 13.9009 8.82479 12.947 10.0007 12.947C11.1766 12.947 12.1307 13.9009 12.1307 15.0749Z" fill="#EEAF30"/>
</svg>
