<svg width="20" height="20" viewBox="0 0 20 20" fill="none" xmlns="http://www.w3.org/2000/svg">
<path fill-rule="evenodd" clip-rule="evenodd" d="M2.49798 8.68468C3.88738 8.68468 4.90586 7.72853 4.90586 6.34269C4.90586 4.95686 3.88802 4.0007 2.49798 4.0007C1.10857 4.0007 0.0900901 4.95686 0.0900901 6.34269C0.0900901 7.72853 1.10796 8.68468 2.49798 8.68468ZM11.8823 8.68468C13.2717 8.68468 14.2902 7.72853 14.2902 6.34269C14.2902 4.95686 13.2717 4.0007 11.8823 4.0007C10.4929 4.0007 9.47439 4.95686 9.47439 6.34269C9.47439 7.72853 10.4929 8.68468 11.8823 8.68468ZM19.1892 8.53248V5.82978C19.1892 4.52717 18.4871 4.0007 17.5384 4C16.9056 4 16.4098 4.30511 16.1209 4.80395H16.0933V4.13865H14.9371V8.53248H16.1068V6.37032C16.1068 5.41364 16.5334 5.08126 17.1253 5.08126C17.689 5.08126 18.0195 5.37299 18.0195 6.07946V8.53248H19.1892ZM5.33247 5.13686V4.13865H9.0753V5.06718L6.72251 7.53428H9.18549V8.53248H5.2774V7.58988L7.63021 5.13686H5.33247ZM2.49798 7.60396C1.78247 7.60396 1.31484 7.10459 1.31484 6.34269C1.31484 5.5801 1.78247 5.08126 2.49798 5.08126C3.21348 5.08126 3.68111 5.5801 3.68111 6.34269C3.68111 7.10529 3.21348 7.60396 2.49798 7.60396ZM11.8823 7.60396C11.1668 7.60396 10.6991 7.10459 10.6991 6.34269C10.6991 5.5801 11.1668 5.08126 11.8823 5.08126C12.5978 5.08126 13.0654 5.5801 13.0654 6.34269C13.0654 7.10529 12.5978 7.60396 11.8823 7.60396ZM15.0386 15.6501V11.275H13.8683V12.8617H11.9957V11.275H10.8253V15.6501H11.9957V13.8833H13.8683V15.6501H15.0386ZM8.84447 11.9096V11.275H10.0148V15.6501H8.84447V15.0564H8.81711C8.5831 15.4703 8.07364 15.8018 7.3578 15.8018C6.18747 15.8018 5.27865 14.9602 5.27865 13.4554C5.27865 11.9649 6.21509 11.1368 7.3578 11.1368C8.05957 11.1368 8.61073 11.4683 8.81711 11.9096H8.84447ZM1.18435 12.0895C1.4734 11.5653 2.02393 11.2338 2.73979 11.2338C3.89598 11.2338 4.84577 12.0895 4.84577 13.4554C4.84577 14.8221 3.79982 15.8018 2.43666 15.8018C1.06003 15.8018 0 14.8221 0 12.9865C0 10.9163 0.564603 9.61867 2.46424 9.46699L4.40548 9.31532V10.4332L2.65713 10.5989C1.52852 10.7094 1.19781 11.1233 1.15679 12.0895H1.18435ZM6.50463 13.483C6.50463 14.2148 6.95829 14.7392 7.66087 14.7392C8.36263 14.7392 8.84447 14.2008 8.84447 13.469C8.84447 12.7236 8.36263 12.1994 7.66087 12.1994C6.95911 12.1994 6.50463 12.7379 6.50463 13.483ZM1.22475 13.4697C1.22475 14.2284 1.74835 14.7392 2.42258 14.7392C3.09744 14.7392 3.62041 14.2284 3.62041 13.4697C3.62041 12.6967 3.09744 12.2411 2.42258 12.2411C1.74774 12.2411 1.22475 12.6967 1.22475 13.4697ZM16.9303 13.5525L18.5131 15.6501L20 15.6496L18.0453 13.262L19.8353 11.275H18.3896L16.9303 13.0829V11.275H15.7599V15.6501H16.9303V13.5525Z" fill="#005BFF"/>
</svg>
