<svg width="20" height="20" viewBox="0 0 20 20" fill="none" xmlns="http://www.w3.org/2000/svg">
<path d="M20 16.22C20 18.65 18.65 20 16.22 20H3.78C1.35 20 0 18.65 0 16.22V3.78C0 1.35 1.35 0 3.78 0H16.225C18.65 0 20 1.35 20 3.78V16.22Z" fill="#FFE600"/>
<path d="M12.8598 9.02483V7.11483L13.5498 6.42483V8.07983L14.1498 8.67983L16.5649 6.26483L17.1599 6.85983C17.1549 6.40983 17.0648 5.10483 15.9599 4.01983C14.7698 2.86983 13.4798 3.38983 13.0398 3.82983L10.6298 6.23983L11.2448 6.85483L9.99985 8.10983L8.75485 6.86483L9.36985 6.24983L6.95985 3.83983C6.51985 3.39983 5.22985 2.87983 4.03984 4.02983C2.93484 5.11483 2.84484 6.41983 2.83984 6.86983L3.43484 6.27483L5.84985 8.68983L6.44985 8.08983V6.43483L7.13985 7.12483V9.03483L8.10985 9.99983L3.32984 14.7798L5.21985 16.6648L9.99985 11.8898L14.7798 16.6698L16.6699 14.7848L11.8898 9.99983L12.8598 9.02483Z" fill="#2B2D34"/>
</svg>
