<svg width="20" height="20" viewBox="0 0 20 20" fill="none" xmlns="http://www.w3.org/2000/svg">
<path fill-rule="evenodd" clip-rule="evenodd" d="M7.09776 11.3378L9.06221 9.41337V8.10225L7.09776 10.0223V11.3378ZM7.09776 6.4578L9.06221 4.52446V3.29334L7.09776 5.20891V6.45336V6.4578ZM7.09776 8.07114L9.06221 6.14669V4.91113L7.09776 6.83113V8.07114ZM6.53776 3.30668L6.27109 3.05779V0H5.97776V2.76445L5.71998 2.51112V0H5.4222V2.22223L5.15998 1.96445V0H4.86664V2.91557L6.83999 4.84002V0H6.54221V3.30668H6.53776ZM7.09776 9.68448L9.06221 7.76003V6.52447L7.09776 8.44447V9.68448ZM4.8622 9.41337L6.83554 11.3378V10.0223L4.8622 8.10225V9.41337ZM8.76888 1.96445L8.50666 2.22223V0H8.21332V2.51556L7.94666 2.76445V0H7.65332V3.05334L7.39554 3.30668V0H7.09776V4.84446L9.06221 2.91557V0H8.76888V1.96445ZM4.8622 4.52446L6.83554 6.4578V5.21335L4.8622 3.2889V4.52002V4.52446ZM4.8622 6.14669L6.83554 8.07114V6.82669L4.8622 4.91557V6.14669ZM4.8622 7.76003L6.83554 9.68448V8.44447L4.8622 6.52891V7.76003ZM16.5822 8.77781H11.8C11.9044 8.61622 11.9599 8.42795 11.96 8.23558C11.9576 7.67395 11.4861 7.20649 10.9244 7.20891C10.3662 7.21132 9.90018 7.67735 9.89777 8.23558C9.89777 8.45781 9.96888 8.66225 10.0889 8.83114C9.99942 8.89068 9.9431 8.99479 9.94222 9.10225C9.94222 9.21781 10.0044 9.32003 10.0889 9.37781C9.96506 9.55175 9.89828 9.75985 9.89777 9.97337C9.89777 10.5326 10.3652 11 10.9244 11C11.4861 11.0025 11.9576 10.535 11.96 9.97337C11.96 9.77337 11.9022 9.5867 11.8 9.43114H15.36V9.64892H15.0045V9.95115H15.36V10.2623H15.0045V10.84H15.36V10.5823H15.88V10.84H16.2311V10.2623H15.88V9.95115H16.2311V9.64892H15.88V9.4267H16.5822C16.7178 9.4267 16.8311 9.31337 16.8311 9.17781V9.0267C16.8288 8.89208 16.7169 8.78015 16.5822 8.77781ZM11.4578 9.97781C11.4578 10.2683 11.2149 10.5111 10.9244 10.5111C10.634 10.5111 10.3911 10.2683 10.3911 9.97781C10.3911 9.77373 10.5299 9.60233 10.6311 9.43559C10.5349 9.35344 10.4784 9.22874 10.48 9.10225C10.48 8.96892 10.5378 8.85336 10.6267 8.77336C10.5309 8.60586 10.3924 8.43242 10.3956 8.23114C10.3956 7.94065 10.6384 7.6978 10.9289 7.6978C11.2194 7.6978 11.4622 7.94065 11.4622 8.23114C11.4622 8.44892 11.2133 8.96447 11.2133 8.96447V9.24003C11.2089 9.24448 11.4578 9.76003 11.4578 9.97781ZM3.07553 8.15114V9.43559C3.07553 10.6578 3.60886 11.4489 3.91998 11.7512L5.95554 13.7512C6.52443 14.3067 6.62221 14.4889 6.7511 14.8045V13.3823C6.7511 12.2248 6.21289 11.7176 5.86652 11.3912C5.26143 10.821 4.66782 10.2368 4.07998 9.64892C3.63527 9.23283 3.29168 8.7205 3.07553 8.15114ZM4.07998 12.8223C3.66644 12.4475 3.32719 11.9982 3.07997 11.4978V12.6045C3.06669 13.4572 3.36542 14.2855 3.91998 14.9334L5.95554 16.9201C6.50452 17.4562 6.61478 17.7233 6.73765 18.0209L6.7511 18.0534V16.5556C6.7511 15.396 6.21101 14.8883 5.86736 14.5652L5.86716 14.565L5.86662 14.5645C5.26269 13.9966 4.66656 13.4089 4.07998 12.8223ZM9.83152 2.37327C9.69065 2.37327 9.54978 2.37336 9.40892 2.38216V2.97772C12.8014 2.71754 16.0857 4.64877 17.5075 7.73992C17.9735 8.75284 18.2285 9.84994 18.2572 10.9645C18.3147 13.2006 17.4346 15.406 15.8534 16.9882C14.2722 18.5703 12.0673 19.4517 9.83114 19.3956C7.65124 19.3979 5.55961 18.5345 4.0161 16.9952C2.47259 15.4558 1.60354 13.3665 1.6 11.1866C1.6 8.66663 2.73334 6.41773 4.52446 4.90661V4.14217C3.4296 4.96137 2.54093 6.02468 1.9291 7.24757C1.31726 8.47047 0.999137 9.81923 1 11.1866C1 16.0533 4.95557 20 9.83559 20C12.1746 20.0012 14.4184 19.0734 16.0736 17.4207C17.7288 15.768 18.6599 13.5257 18.6623 11.1866C18.6623 6.32008 14.7069 2.37347 9.83152 2.37327ZM16.4667 15.2133C16.3467 15.4133 16.2134 15.6089 16.0801 15.7911V14.0311H16.4667V15.2133ZM17.2461 13.4815C17.2338 13.5221 17.2214 13.563 17.2089 13.6044C16.9956 13.3866 16.6134 13.3911 16.2712 13.4H16.0801V13.0889H17.3601C17.326 13.2184 17.2866 13.348 17.2461 13.4815ZM8.33336 13.04H8.68003V13.0444V16.5555H8.33336V13.04ZM7.53332 12.3685H8.67999C8.97777 12.3685 9.18666 12.4307 9.30221 12.5463C9.42221 12.6574 9.47999 12.8663 9.47999 13.1596V16.4485C9.47999 16.7419 9.42666 16.9463 9.30221 17.0619C9.12443 17.2441 8.78665 17.2441 8.5111 17.2441L8.33332 17.2396V18.7952L8.67999 18.8574V17.5774C9.21332 17.5774 9.55555 17.3996 9.71999 17.0352V18.9419H9.83555L10.0578 18.9374V13.2174C10.0578 12.9152 10.1155 12.7018 10.2355 12.5818C10.3467 12.4618 10.5555 12.4041 10.8444 12.4041C10.8853 12.4041 10.9288 12.4032 10.974 12.4024C11.2579 12.3969 11.6089 12.3901 11.8044 12.5818C11.92 12.7018 11.9733 12.9196 11.9733 13.2174V14.9063H11.1867V13.1019H10.8444V18.8752C10.96 18.8619 11.0667 18.8441 11.1867 18.8219V15.2441H11.9733V18.6396C12.1333 18.5952 12.2933 18.5463 12.4533 18.4885V15.3774C12.4533 15.0219 12.5378 14.7552 12.8978 14.6352L12.4978 12.4707H13.2978L13.4311 14.8307H13.5289L13.6622 12.4707H14.4978L14.0489 14.6352C14.4222 14.7685 14.4978 14.9952 14.4978 15.373V17.3863C14.7309 17.2115 14.9536 17.023 15.1645 16.8219V12.453H17.4978L17.5422 12.133H12.08L12.1556 12.5285C11.9867 12.2085 11.6578 12.0485 11.1778 12.0485H10.8355C10.2578 12.0485 9.90221 12.2796 9.76888 12.7374C9.64888 12.2574 9.27999 12.0174 8.67554 12.0174H7.1822V18.4708C7.29776 18.5108 7.41332 18.5508 7.52887 18.5819V12.373L7.53332 12.3685ZM14.7733 14.8485L14.3956 14.493L14.7733 12.5507V14.8485ZM13.3542 18.097C13.3339 18.1075 13.3135 18.118 13.2933 18.1285V18.124V15.2796H13.6489V17.9374C13.5565 17.9928 13.4548 18.0452 13.3542 18.097Z" fill="#42AB44"/>
</svg>
