<svg width="20" height="20" viewBox="0 0 20 20" fill="none" xmlns="http://www.w3.org/2000/svg">
<path d="M10 20C15.5228 20 20 15.5228 20 10C20 4.47715 15.5228 0 10 0C4.47715 0 0 4.47715 0 10C0 15.5228 4.47715 20 10 20Z" fill="black"/>
<path d="M13.6186 16.2776H11.4234V5.42034H10.4455C8.65293 5.42034 7.71398 6.31661 7.71398 7.65452C7.71398 9.17243 8.3616 9.87571 9.70137 10.772L10.8055 11.5161L7.63234 16.2758H5.27197L8.12779 12.0264C6.48556 10.8536 5.56145 9.7087 5.56145 7.77699C5.56145 5.36282 7.24451 3.72058 10.4306 3.72058H13.6038V16.2739H13.6186V16.2776Z" fill="white"/>
</svg>
