<svg width="20" height="20" viewBox="0 0 20 20" fill="none" xmlns="http://www.w3.org/2000/svg">
<path fill-rule="evenodd" clip-rule="evenodd" d="M15.75 5.625C15.75 8.73169 13.2317 11.25 10.125 11.25C7.01831 11.25 4.5 8.73169 4.5 5.625C4.5 2.51831 7.01831 0 10.125 0C13.2317 0 15.75 2.51831 15.75 5.625ZM10.125 18.75C7.01556 18.75 4.5 18.9545 4.5 19.1589V19.5911C4.5 19.7955 7.01556 20 10.125 20C13.2344 20 15.75 19.7955 15.75 19.5911V19.1589C15.7674 18.9545 13.2344 18.75 10.125 18.75ZM4.5 14.6875V15.3125C4.5 16.3483 7.01831 17.1875 10.125 17.1875C13.2317 17.1875 15.75 16.3483 15.75 15.3125V14.6875C15.75 13.6517 13.2317 12.8125 10.125 12.8125C7.01831 12.8125 4.5 13.6517 4.5 14.6875Z" fill="#F10D30"/>
</svg>
