<svg width="20" height="20" viewBox="0 0 20 20" fill="none" xmlns="http://www.w3.org/2000/svg">
<path d="M0 0H20V20H0V0Z" fill="#DD002E"/>
<path d="M3.5 4.90002V15.1H5.35V6.50002H7.6V15.1H9.45V4.90002H3.5ZM16.95 11.65C16.9 10.5 16.5 8.25002 13.6 8.25002L13.55 8.20002H12.7V6.55002H15.95V4.90002H10.95V15.1H13.75C14.2 15.1 14.65 15 15.05 14.85C15.45 14.7 15.8 14.4 16.1 14.1C16.4 13.75 16.65 13.4 16.8 12.95C16.95 12.55 17 12.1 16.95 11.65ZM13.35 13.45C13.15 13.45 12.7 13.35 12.7 13.35V9.75002H13.05C14 9.75002 15.05 9.65002 15.05 11.55C15.05 13.35 13.9 13.45 13.35 13.45Z" fill="white"/>
</svg>
