<svg width="20" height="20" viewBox="0 0 20 20" fill="none" xmlns="http://www.w3.org/2000/svg">
<path d="M4.365 20H1.5V7.665C1.51181 5.63575 2.32316 3.69299 3.75807 2.25807C5.193 0.82316 7.13575 0.0118096 9.165 0H18.635V7.6C18.6336 9.63335 17.825 11.5829 16.3867 13.0203C14.9485 14.4576 12.9984 15.265 10.965 15.265H6.165L7.23 12.4H10.9C11.5311 12.4026 12.1565 12.2803 12.74 12.04C13.3235 11.7998 13.8538 11.4462 14.3 11C14.7463 10.5538 15.0998 10.0236 15.34 9.44C15.5803 8.85645 15.7027 8.2311 15.7 7.6V2.865H9.1C8.4689 2.86235 7.84355 2.9847 7.26 3.22499C6.67645 3.46527 6.14625 3.81874 5.7 4.26499C5.25375 4.71124 4.90027 5.24145 4.65999 5.825C4.4197 6.40855 4.29736 7.0339 4.3 7.665V20H4.365Z" fill="url(#paint0_radial_133_2201)"/>
<defs>
<radialGradient id="paint0_radial_133_2201" cx="0" cy="0" r="1" gradientUnits="userSpaceOnUse" gradientTransform="translate(2.075 19.195) scale(16.59)">
<stop stop-color="#D6005E"/>
<stop offset="1" stop-color="#E3448A"/>
</radialGradient>
</defs>
</svg>
