<svg width="20" height="20" viewBox="0 0 20 20" fill="none" xmlns="http://www.w3.org/2000/svg">
<path d="M2 4.35339L4.422 8.68256V11.3232L2.00283 15.6439L2 4.35339Z" fill="#5B57A2"/>
<path d="M11.2993 7.10725L13.5688 5.71625L18.2135 5.71191L11.2993 9.94758V7.10725Z" fill="#D90751"/>
<path d="M11.2864 4.32783L11.2992 10.0595L8.87158 8.56782V0L11.2866 4.32783H11.2864Z" fill="#FAB718"/>
<path d="M18.2134 5.71183L13.5686 5.71616L11.2864 4.32783L8.87158 0L18.2132 5.71183H18.2134Z" fill="#ED6F26"/>
<path d="M11.2992 15.6679V12.887L8.87158 11.4237L8.87292 20L11.2992 15.6679Z" fill="#63B22F"/>
<path d="M13.5633 14.2895L4.42183 8.68256L2 4.35339L18.2038 14.2839L13.5632 14.2895H13.5633Z" fill="#1487C9"/>
<path d="M8.87354 20L11.2995 15.6678L13.5634 14.2895L18.2039 14.2838L8.87354 20Z" fill="#017F36"/>
<path d="M2.00293 15.6438L8.89176 11.4238L6.57576 10.0028L4.42209 11.3231L2.00293 15.6438Z" fill="#984995"/>
</svg>
