<svg width="20" height="20" viewBox="0 0 20 20" fill="none" xmlns="http://www.w3.org/2000/svg">
<path fill-rule="evenodd" clip-rule="evenodd" d="M10.1553 0C10.4217 0 10.705 0.0110324 11.0186 0.0362494V1.9551C11.0186 10.4099 11.3409 14.0648 12.5907 19.7007C10.9938 20.1003 9.29993 20.1003 7.70574 19.6976C8.96383 14.0206 9.2885 10.3657 9.2885 1.9551V0.0362494C9.60529 0.0110324 9.88859 0 10.1553 0ZM19.8044 10.7156C19.8044 7.42718 18.0132 4.5359 15.3221 2.88892L15.3583 5.12141C16.958 6.49652 17.9714 8.49654 17.9714 10.7156C17.9714 11.729 17.7547 12.6959 17.3745 13.5793C16.2165 12.4792 15.3914 11.1853 14.878 9.6573C14.2586 7.8078 14.114 5.78256 14.0919 3.30815L14.0947 2.24431L13.8677 2.14975L13.6597 2.06937C13.2389 1.91176 12.8055 1.78174 12.3646 1.68323L12.3673 3.305C12.4256 11.8488 13.906 15.3705 16.1081 18.0175C18.3603 16.3177 19.8044 13.6794 19.8044 10.7156ZM7.93979 3.30657L7.94255 1.68481C7.34837 1.81798 6.76799 2.00711 6.21243 2.24588L6.21519 3.30973C6.19036 5.78177 6.04852 7.80937 5.42913 9.65888C4.91848 11.1869 4.09066 12.4785 2.93265 13.5809C2.55242 12.6975 2.33572 11.7306 2.33572 10.7172C2.33572 8.49496 3.34636 6.49809 4.94882 5.12298L4.98507 2.89049C2.29119 4.53432 0.5 7.4256 0.5 10.7172C0.5 13.681 1.94682 16.3193 4.19625 18.0191C6.40392 15.3752 7.88147 11.8504 7.93979 3.30657Z" fill="#3B175C"/>
</svg>
