<svg width="93" height="32" viewBox="0 0 93 32" fill="none" xmlns="http://www.w3.org/2000/svg">
<path d="M69.5352 32H67.941V21.7297H69.5352V22.7002C69.7575 22.3912 70.0763 22.1304 70.4918 21.918C70.9169 21.6959 71.3758 21.5848 71.8686 21.5848C72.8541 21.5848 73.6802 21.9518 74.3469 22.6857C75.0232 23.4197 75.3614 24.3081 75.3614 25.3511C75.3614 26.394 75.0232 27.2825 74.3469 28.0164C73.6802 28.7504 72.8541 29.1173 71.8686 29.1173C71.3758 29.1173 70.9169 29.0111 70.4918 28.7987C70.0763 28.5766 69.7575 28.311 69.5352 28.002V32ZM71.5787 27.6688C72.2068 27.6688 72.7237 27.4467 73.1295 27.0024C73.5353 26.5582 73.7382 26.0078 73.7382 25.3511C73.7382 24.6944 73.5353 24.1439 73.1295 23.6997C72.7237 23.2555 72.2068 23.0334 71.5787 23.0334C70.9411 23.0334 70.4193 23.2555 70.0135 23.6997C69.6077 24.1439 69.4048 24.6944 69.4048 25.3511C69.4048 26.0078 69.6077 26.5582 70.0135 27.0024C70.4193 27.4467 70.9411 27.6688 71.5787 27.6688Z" fill="#424242"/>
<path d="M79.956 29.1173C78.9705 29.1173 78.1396 28.7504 77.4632 28.0164C76.7966 27.2825 76.4632 26.394 76.4632 25.3511C76.4632 24.3081 76.7966 23.4197 77.4632 22.6857C78.1396 21.9518 78.9705 21.5848 79.956 21.5848C80.4488 21.5848 80.9029 21.6959 81.3184 21.918C81.7338 22.1304 82.0527 22.3912 82.2749 22.7002V21.7297H83.8691V28.9725H82.2749V28.002C82.0527 28.311 81.7338 28.5766 81.3184 28.7987C80.9029 29.0111 80.4488 29.1173 79.956 29.1173ZM78.6951 27.0024C79.1009 27.4467 79.6178 27.6688 80.2459 27.6688C80.8739 27.6688 81.3908 27.4467 81.7966 27.0024C82.2024 26.5582 82.4053 26.0078 82.4053 25.3511C82.4053 24.6944 82.2024 24.1439 81.7966 23.6997C81.3908 23.2555 80.8739 23.0334 80.2459 23.0334C79.6178 23.0334 79.1009 23.2555 78.6951 23.6997C78.2893 24.1439 78.0864 24.6944 78.0864 25.3511C78.0864 26.0078 78.2893 26.5582 78.6951 27.0024Z" fill="#424242"/>
<path d="M88.3478 32H86.5941L88.1449 28.5814L85.0289 21.7297H86.7825L88.9999 26.8576L91.2319 21.7297H93L88.3478 32Z" fill="#424242"/>
<path d="M37.7415 29.1173C36.756 29.1173 35.9251 28.7504 35.2487 28.0164C34.5821 27.2825 34.2487 26.394 34.2487 25.3511C34.2487 24.3081 34.5821 23.4197 35.2487 22.6857C35.9251 21.9518 36.756 21.5848 37.7415 21.5848C38.2343 21.5848 38.6884 21.6959 39.1039 21.918C39.5193 22.1304 39.8382 22.3912 40.0604 22.7002V21.7297H41.6546V28.9725H40.0604V28.002C39.8382 28.311 39.5193 28.5766 39.1039 28.7987C38.6884 29.0111 38.2343 29.1173 37.7415 29.1173ZM36.4806 27.0024C36.8864 27.4467 37.4034 27.6688 38.0314 27.6688C38.6594 27.6688 39.1763 27.4467 39.5821 27.0024C39.9879 26.5582 40.1908 26.0078 40.1908 25.3511C40.1908 24.6944 39.9879 24.1439 39.5821 23.6997C39.1763 23.2555 38.6594 23.0334 38.0314 23.0334C37.4034 23.0334 36.8864 23.2555 36.4806 23.6997C36.0748 24.1439 35.8719 24.6944 35.8719 25.3511C35.8719 26.0078 36.0748 26.5582 36.4806 27.0024Z" fill="#636363"/>
<path d="M45.4086 32H43.8144V21.7297H45.4086V22.7002C45.6309 22.3912 45.9497 22.1304 46.3652 21.918C46.7903 21.6959 47.2492 21.5848 47.742 21.5848C48.7275 21.5848 49.5536 21.9518 50.2203 22.6857C50.8966 23.4197 51.2348 24.3081 51.2348 25.3511C51.2348 26.394 50.8966 27.2825 50.2203 28.0164C49.5536 28.7504 48.7275 29.1173 47.742 29.1173C47.2492 29.1173 46.7903 29.0111 46.3652 28.7987C45.9497 28.5766 45.6309 28.311 45.4086 28.002V32ZM47.4521 27.6688C48.0802 27.6688 48.5971 27.4467 49.0029 27.0024C49.4087 26.5582 49.6116 26.0078 49.6116 25.3511C49.6116 24.6944 49.4087 24.1439 49.0029 23.6997C48.5971 23.2555 48.0802 23.0334 47.4521 23.0334C46.8144 23.0334 46.2927 23.2555 45.8869 23.6997C45.4811 24.1439 45.2782 24.6944 45.2782 25.3511C45.2782 26.0078 45.4811 26.5582 45.8869 27.0024C46.2927 27.4467 46.8144 27.6688 47.4521 27.6688Z" fill="#636363"/>
<path d="M53.6555 20.1507C53.3656 20.1507 53.1144 20.0493 52.9018 19.8465C52.6893 19.6341 52.583 19.3782 52.583 19.0788C52.583 18.7891 52.6893 18.5428 52.9018 18.34C53.1144 18.1276 53.3656 18.0213 53.6555 18.0213C53.955 18.0213 54.2062 18.1276 54.4091 18.34C54.612 18.5428 54.7135 18.7891 54.7135 19.0788C54.7135 19.3782 54.612 19.6341 54.4091 19.8465C54.2062 20.0493 53.955 20.1507 53.6555 20.1507ZM52.8583 28.9725V21.7297H54.4526V28.9725H52.8583Z" fill="#636363"/>
<path d="M59.5659 29.1173C58.5803 29.1173 57.7494 28.7504 57.0731 28.0164C56.4064 27.2825 56.0731 26.394 56.0731 25.3511C56.0731 24.3081 56.4064 23.4197 57.0731 22.6857C57.7494 21.9518 58.5803 21.5848 59.5659 21.5848C60.0586 21.5848 60.5127 21.6959 60.9282 21.918C61.3437 22.1304 61.6625 22.3912 61.8847 22.7002V18.1082H63.479V28.9725H61.8847V28.002C61.6625 28.311 61.3437 28.5766 60.9282 28.7987C60.5127 29.0111 60.0586 29.1173 59.5659 29.1173ZM58.305 27.0024C58.7108 27.4467 59.2277 27.6688 59.8557 27.6688C60.4838 27.6688 61.0007 27.4467 61.4065 27.0024C61.8123 26.5582 62.0152 26.0078 62.0152 25.3511C62.0152 24.6944 61.8123 24.1439 61.4065 23.6997C61.0007 23.2555 60.4838 23.0334 59.8557 23.0334C59.2277 23.0334 58.7108 23.2555 58.305 23.6997C57.8992 24.1439 57.6963 24.6944 57.6963 25.3511C57.6963 26.0078 57.8992 26.5582 58.305 27.0024Z" fill="#636363"/>
<path d="M28.2445 0H17.7535C17.7028 0 17.6584 0.0338514 17.645 0.0826746L15.7379 7.04165H28.0433C33.0755 7.04165 35.2897 9.85831 34.2833 13.2785C35.2897 12.0714 36.9806 8.6914 35.6923 4.82856C34.404 0.965711 30.1904 0 28.2445 0Z" fill="#424242"/>
<path d="M34.2817 13.2723C35.7044 8.2471 30.8266 7.04106 28.3876 7.04106C29.1492 7.22936 29.126 8.29962 28.1844 8.4342C30.2168 8.43884 34.2817 9.41294 34.2817 13.2723Z" fill="#1C1C1C"/>
<path d="M27.9811 8.44811H15.38L9.89241 28.9507H17.2092L20.6643 16.0863C23.713 16.4884 30.7046 16.6492 34.2817 13.2723C34.2817 9.41294 30.2168 8.43884 28.1844 8.4342C28.1208 8.44328 28.0531 8.44811 27.9811 8.44811Z" fill="#353535"/>
<path d="M30.2168 17.0914C27.9405 18.3778 24.3905 18.4314 22.9 18.2974L27.9811 28.9507C31.5079 28.8539 33.8397 25.6905 32.4827 22.4696L30.2168 17.0914Z" fill="#424242"/>
<path d="M8.09379 0.501164C8.09379 0.232267 8.31189 0.0142824 8.58092 0.0142824H16.9745L16.6747 0.988046H8.58092C8.31189 0.988046 8.09379 0.770062 8.09379 0.501164Z" fill="#424242"/>
<path d="M2.36069 6.56846C2.36069 6.29956 2.57878 6.08158 2.84782 6.08158H15.2508L14.9885 7.05534H2.84782C2.57878 7.05534 2.36069 6.83736 2.36069 6.56846Z" fill="#424242"/>
<path d="M0 3.55354C0 3.2743 0.226482 3.04793 0.505862 3.04793H15.9815L15.7005 4.05915H0.505862C0.226482 4.05915 0 3.83278 0 3.55354Z" fill="#424242"/>
</svg>
